<?xml version="1.0"?>
<svg id="Camada_2" data-name="Camada 2" xmlns="http://www.w3.org/2000/svg" viewBox="0 0 1822.78 871.43">
  <g id="Camada_1-2" data-name="Camada 1">
    <g>
      <path d="M501.74,292.01l22.47-22.65,21.37-21.8c6.58-6.71,12.12-13.82,15.91-22.5l13.98-32.07,6.71-10.53c3.59-11.28,9.83-20.7,19.1-27.87,3.41-8.8,9.23-15.39,17.01-20.5,9-5.4,18.61-9.13,29.21-11.03,11.87-2.12,24.24,4.75,27.73,16.12,3.02,9.88-2.23,17.57-7.83,24.98-22.97,30.4-50.26,56.54-83.56,75.46-3.19,1.81-5.03,4.34-4.62,8.17,11.96,1.15,21.4,6.62,27.99,16.86,17.23-4.63,34.38-8.22,49.78-17.06l49.42-28.36c15.17-8.7,14.49-37.94,35.31-35.18,4.25.56,10.17,1.62,12.22,6.44,1.06,2.5-3.03,5.75-4.32,7.62-5.32,7.69-9.92,14.64-16.39,21.16l-23.96,82.98c22.77-11.02,44.03-22.68,65.85-35.24,12.17-7.01,24.7-13.04,34.61-23.03l41.54-41.86c16.24-16.36,29.49-34.26,43.54-52.39l17.24-22.23c3.99-5.15,17.92-1.99,22.84,5.69,1.24,1.94-.05,6.96-1.01,9.49l-35.12,92.8,29.05-37.48c10.14-13.08,20.3-25.37,32.95-36.09,19.62-16.61,43.95-28.02,67.95-16.14,10.1,5,15.21,16.22,11.1,27.28l-14.75,39.73c-4.62,12.45-12.84,22.68-19.71,33.94l-20.49,33.6,9.63-7.04,26.22-26.5,18.2-18.32c19.68-17.53,36.35-36.99,49.5-59.97l17.75,3.23c1.75.32,4.4,3.01,5.1,4.44.69,1.43-.03,4.7-1.11,6.51-13.19,22.13-23.61,44.7-30.76,70.37.21,1.09,1,4.47,4.03,6.76,3.6,2.72,8.89,2.79,13.31.13,0,0,65.38-48.91,95.64-76.46l30.73-27.96,18.77-13.82c4.04-2.98,10.59-3.29,15.55-1.88,5.07,1.44,10.9,7.28,11.04,12.86l-18.86,69.22,45.92-24.65c18.62-11.29,35.17-24.27,50.9-39.15l17.29-16.37c8.09-7.66,14.06-16.68,18.26-26.93l12.23-29.86,13.52-35.77c5.33.31,10.3.48,15.44,2.82,2.65,1.2,3.7,7.43,3.53,10.56-1.22,22.91-11.43,44.91-22.97,64.58-8.98,15.31-15.53,30.76-21.48,47.55l-15.81,44.6c-1.35,3.8-2.68,9.19-2.37,12.85l.22,2.59c.03.32.66.46.84.17l1.01-1.67c15.03-24.88,35.75-44.91,60.12-60.63,9.06-5.85,18.24-9.61,29.29-8.72,12.73,1.02,24.2,10.37,25.56,23.48.98,9.45-1.77,18.88-6.4,27.03l-17.36,30.62-33.46,47.94c-.18.26-1.22,1.27-.95,1.41l1.99,1.01,4.12,2.08,65.41-53.62c5.94-4.87,9.4-10.85,12.36-17.6,4.3-9.81,9.83-19.07,17.38-26.69l27.7-27.97c2.83-2.86,5.51-6.85,9.99-7.23,17.22-1.46,39.13,6.75,37.5,23.81-5.44,8.18-12.88,14.87-20.5,20.99l-58.55,47.03c-8.71,14.84-7.52,42.87,6.36,49.71,5.06,2.5,12.44,4.34,17.69,2.21l26.04-10.55c11.68-4.73,22.33-10.25,33.24-16.73,2.05-1.22,2.67-3.69,2.34-6l-.36-2.49c-1.17-8,1.24-17.92,3.56-26.02l.49-1.71.46-1.36c3.42-10.06,8.18-19.21,14.16-27.97l.83-1.21c11.08-16.23,25.2-29.68,40.88-41.49,6.04-4.55,11.78-8.16,19.54-6.03l3.44-1.98c.69.17,1.63.41.94.23l-.6,2.87c-.12.57,1.02,1.37,1.7,1.69l16.35,7.76c.33.16,1.72.95,1.88.64l1.07-2.14,33.36-72.43L1799.95,1.38c9.56-4.29,21.48,1.89,22.83,12.35l-29.83,60.3c-20.36,41.14-37.79,82.6-52.16,126.21-9.95,30.21-9.86,62.38,3.77,91.26,4.06,8.6,20.97,2.54,20.31,13.12-.33,5.36-3.91,8.42-9.32,8.31-18.75-.39-33.14-18-38.55-36.28-3.95-13.33-5.7-26.71-7.03-40.65l-.46-2.15c-.07-.31-.5-.35-.67-.08l-1.32,2.15-29.99,48.78c-8.36,13.6-22.76,22.33-38.02,26.07-10.17,2.49-19.61-2.63-25.42-11.45l-43.17,23.34c-25.58,13.83-57.08,2.17-68.56-24.03l-9.15-20.89-1.18-.61-19.38,16.67c-11.28,9.7-22.94,17.99-35.96,25.53-5.04,2.92-21.52-3.07-27.97-7.1-8.95-5.59-11.88-20.73-5.51-29.21l22.7-30.25c15.29-20.38,31.63-45.14,36.82-69.83l-.31-1.52c-7.37-2.38-13.73-.39-19.88,3.62-20.26,13.23-38,28.99-51.14,49.53-17.92,28.01-31.85,62.19-35.1,95.36-5.31,3.61-13.04,1.45-16.81-3.77-4.7-6.5-6.51-14.33-5.41-22.42,3.5-25.77-.35-51.45,3.61-65.31l7.89-27.62,10.1-28.52c.38-.83.15-1.94-.45-1.62l-33.42,24.68c-16.05,11.85-33.09,21.01-51.16,29.42l-23.64,12.83c-27.92,15.16-30.95,47.77-66.23,72.8-12.1,8.58-30.18,16.23-40.74,7.6-5.59-4.56-8.27-11.76-9.5-18.61l15.36-10.51,65.48-52.41,17.98-36.26c.11-5.66.61-11.97,3.01-17.53,5-11.59,5.98-22.68,4.03-20.78l-1.82,1.78-30.63,29.02c-30.5,28.9-62.07,55.66-96.58,79.63-7.61,5.28-17.04,9.03-26.17,7.57-6.44-1.03-12.49-5.38-17.51-9.38-6.44-5.14-11.62-13.64-11.06-22.11l3.28-16.89-33.3,33.95-28.65,28.8c-7.57,5.79-15.65,9.46-25.08,6.75-8.8-6.36-13.84-16.83-14.03-27.6-.13-7.54,3.83-12.29,7.96-17.84l24.55-32.98c13.34-17.92,30.34-53.61,29.22-76.68-26.82,3.32-44.49,19.2-60.43,39.81l-52.67,68.07c-9.84,12.72-18.54,25.36-25.55,39.74l-18.01,37.01c-2.42,1.18-7.5,2.56-10.18,1.53-9.49-3.62-12.23-13.43-10.77-22.72,1.59-10.19,6.98-18.12,11.02-27.59l36.09-84.56c2.42-5.66,3.78-11,4.27-17.36l-39.74,44.16c-13.54,15.05-28.11,28.15-44.85,39.51l-45.39,30.81c-5.12.49-10.13-3.49-12.56-7.5l-30.29,24.67c-4.39,3.57-11.68,5.72-16.85,3.59-6.47-2.66-11.17-8.44-14.51-14.36-1.76-3.12-1.09-7.41.27-10.64,7.23-17.25,12.55-34.42,17.42-52.51.15-.56.41-2.88-.07-2.65l-2.4,1.14-37.99,19.37-59.95,22.54c-5.64,35.59-14.82,71.18-34.23,101.14-4.79,7.39-10.98,13.16-16.76,19.72l-31.01,35.15c-7.72,8.76-18.89,11.39-29.06,4.67-12.41-8.2-15.21-16.81-9.49-30.78l24.46-59.86,31.52-73.99c.02-.52.03-1.75-.21-1.6l-2.11,1.3c-4.99,3.07-9.38,8-13.07,12.63l-15.38,19.28c-24.6,20.76-44.6,33.38-50.14,32.54-3.45-.53-6.07-2.24-6.07-2.24-5.52-3.71-7.19-9.05-5.17-15.93l15.23-51.9c3.09-10.54,6.54-20.77,12.09-30.23l33.25-56.71c5.2-8.88,9.12-17.47,11.5-28.33-9.8,5.8-20.04,11.15-27.28,20.17l-64.41,80.26c-7.26,9.04-12.74,18.45-19.03,28.11l-30.53,46.88c-5.75,3.06-13.91-1.73-18.2-6.66-11.25-12.91-7.82-30.6-1.24-46.1l14.28-33.63c4.52-10.65,9.23-20.6,13.94-31.08l11.62-25.88.58-1.36.58-1.35.5-2.36c.87-.24-.13.04-1.49.42-26.64,20.27-49.38,44.35-67.85,72.13l-22.28,33.51c-12.32,18.53-44.78,57.29-68.13,54.61l72.88-99.65c14.31-19.56,29.33-36.35,47.8-52.66l55.75-49.24c7.48-6.61,16-10.04,26.25-5.28,3.6,1.67,2.56,7.5.73,11.2l-47.84,96.82c-6.94,14.04-12.13,27.77-15.58,43.68l33.8-47.39c14.56-20.41,30.12-39.02,46.91-57.61,11.44-12.67,22.98-24.24,36.92-34.05,13.68-9.63,32.06-17.37,45.3-7.01,2,9.71-1.12,19.87-5.07,29.01-17.66,40.81-56.14,72.72-60.84,120.59-3.04,9.39-3.57,14.69-1.58,15.91,3.02,1.86,11.87-5.73,26.54-22.78ZM591.52,213.3c20.73-15.57,37.74-33.55,53.23-53.55,4.25-5.48,7.86-10.86,6.94-18.74-28.18,15.7-50.91,40.55-60.16,72.29ZM1649.72,242.88l26.75-32.13c6.26-7.51,12.25-14.84,15.29-24.92-11.17,5.32-21.53,11.49-29.18,20.51l-20.24,23.89c-5.09,8.78-9.36,17.29-12.56,27.28,8.08-3.16,14.36-7.93,19.94-14.63ZM1668.49,249.29l-39.72,39.68c13.61,2.2,35.47-25.57,39.72-39.68ZM540.09,388.37c12.13-14.59,19.46-31.15,24.43-48.87,2.52-9,7.68-16.05,15.18-21.37-1.93-2.54-5.04-6.54-4.73-8.81.94-6.69,6.44-9.67,11.14-14.57l-22.12-12.99-14.48,35.09-35.75,87.72c-2.74,6.73-4.8,12.52-6.35,19.97,5.62-4.25,9.84-8.68,14.2-13.93l18.48-22.23Z"></path>
      <path d="M967.62,724.45l-24.6-.1c-8.91-.54-16.99-3.1-23.42-9.31l-41.81-6c-12.07,2.11-23.22,5.43-34.71,9.47l-34.72,13.33c-9.22,3.54-18.57,6.26-28.37,7.06-9.4.76-17.6-4.91-18.52-14.47l-3.32-34.44-58.73-11c-23.19,14.13-26.95,44.06-58.18,32.01l-2.47-30.25-52.58,23.65c-21.49,9.67-42.2,19.13-64.55,26.48-17.28,5.69-47.63,13.16-60.18,2.81-7.17-5.91-13.81-16.85-12.49-26.38l5.53-39.93-28.86,6.17c-8.47,1.81-17.22,4.09-24.78,8.76l-94.13,58.14-15.29,1.54c-1.63-5.42-2.08-11.54.26-16.46l27.25-21.71c10.64-8.48,18.63-19.62,24.75-31.79l20.34-40.43c-10.81-4.25-21.99-6.79-33.1-4.87-56.5,46.44-118.7,84.15-185.76,113.04l-9.47-8.27c2.57-6.04,6.18-8.88,11.36-11.49,12.59-6.36,25.92-10.37,38.15-17.66l94.85-56.48c11.23-6.69,19.48-16.02,28.99-24.78-13.07-3.86-24.07-9.53-36.99-12.49-52.16-11.96-103.02-26.19-153.05-45.46-16.41-6.32-32.55-9.78-50.04-10.76l-11.76-1.24c-4.57-1.38-7.66-4.89-6.57-9.81,13.21-12.04,30.82-9.68,47.94-4.78l104.65,36.36,132.37,31.25,82.3-60.2c3.45-2.52,5.45-7.09,8.14-10.21,1.42-1.43,3.33-2.45,5.23-2.96,5.02,3.95,8.41,9.59,8.04,16.2l-42.24,66.81,92.39,11.71,63.42-41.71c6.01-3.95,14.38-7.19,21.55-6.63,8.8.68,14.8,8.99,17.92,16.93l-35.73,41.15,60.85,9.79c10.95,1.76,21.65,1.58,32.77.58l81.83-153.98,9.83-11.59c4.16-1.14,9.76,1.84,12.81,5.14l-5.86,20.2-20.07,42.32-55.44,103.65c7.62,3.05,17.35,6.6,25.33,3.22l83.67-50.52,81.12-35.89c5.78.18,12.65.48,16.43,5.7,3.25,4.48,4.42,15.28.23,19.49l-17.73,17.85-25.78,25.04-38.37,38.83,64.22,10.54c17.23,2.83,34.88-4.1,49.65-12.02,6.37-3.42,10.03-8.59,13.81-14.24,27.74-41.43,61.54-76.39,115.39-74.87l4.45,41.8,21.61-13.6,34.33-2.07c8.9-.54,18.04-1.55,26.1-5.68l77.38-39.59c10.72-3.01,22.11,5.61,27.91,14.06l-14.74,20.63,55.13,9.71c17.72,3.12,35.3.9,53.09-1.79l62.05-12.7,28.93-44.93c15.73-24.43,50.41-55.79,79.87-59,12.17-1.33,22.36,4.58,26.86,15.64,4.46,10.96,4.85,22.7,2.27,34.24-3.2,14.31-11.97,24.92-24.01,32.86l-25.36,16.73c-6.67,4.4-13.9,6.93-21.63,9.13l-46.14,13.12c-15.89,20.6-14.71,50.02-1.98,72.19,2.49,4.34,8.7,7.11,13.43,8.31l20.07,5.11c2.95.75,7.14,3.72,5.52,7.23-6.64,14.41-31.93,13.95-48.24.77-26.19-21.16-21.01-58.52-15.99-91.24l-118.06,21.35c-25.38,57.87-77.22,82.01-131.01,93.98l2.93,1.2,1.54.36,74.3,17.75,121.27,25.48,143.76,32.56,1.85.58,245.69,59.95c2.19.47,2.76,1.14,1.01,1.47-19.76,2.41-38.25,1.48-57.41-2.7l-294.28-64.18-202.7-42.04-97.62-20.46c-35.15-7.37-69.57-12.75-105.86-16.29ZM1502,549.56c6.2-8.63,9.2-18.75,6.81-29.08-19.64-7.22-39.18,2.6-52.03,18.33l-39.54,48.42c31.18,3.04,67.36-13.44,84.76-37.68ZM374.68,610.21l12.24-11.38-4.37-5.19-22.04,13.99,14.17,2.57ZM774.33,673.86l72.98-77.78c-20.8,4.6-38.7,13.55-56.78,23.92l-66.15,40.88,49.95,12.98ZM1018.65,619.92l6.03-12.44c-3.64-.08-6.49,0-9.58,1.04-19.37,6.54-43.69,20.35-51.69,38.5l55.24-27.09ZM1210.81,676.16c10.36-5.45,19.18-12.16,24.74-21.88l12-20.99-38.58-5.96c-9.73-1.5-15.43-10.25-16.64-20.25-23.19,5.62-44.83,15.14-63.37,29.7-10.07,7.9-17.58,17.31-20.27,29.77-4.01,18.59,7.07,36.41,25.84,39.99,9.09,1.74,18.12.24,26.36-4.1l49.92-26.28ZM1113.8,726.43l-12.92-13.98c-19.25-26.1-16.58-51.45-.16-79.7-19.19,1.29-39.96,5.44-53.03,19.94l-48.95,54.34,76.47,13.8,38.58,5.6ZM441.64,639.12l-53.46-5.34c-12.52,5.42-21.82,26.14-20.4,40.56l83.1-28.86c-1.97-2.01-5.67-6.01-9.24-6.36ZM983.99,690.07l36.82-28.03c4.21-3.2,7.41-10.83,6.98-15.93-.35-4.08-3.72-7.66-5.79-10.79l-71.27,38.35c-6.45,3.47-12.86,10.69-13.16,17.88,8.86,15.67,32,9.5,46.42-1.47ZM514.03,712.23l106.38-44.63c-31.29-9.54-62.63-14.14-94.71-16.22l-22.42.75c-27.42,8.82-37.06,36.65-32.93,64.09,14.89,2.99,28.91,1.41,43.67-4ZM823.41,702.44l-28.44-6.69c-5.95.49-11.6,2.66-15.7,7.03-.31,6.54,1.94,12.66,7.16,16.78l36.98-17.12Z"></path>
      <path d="M113.84,238.23l-51.15,57c-12.24,13.63-26.76,23.75-43.59,30.95l-19.1-12.14,13.41-7.51c13.73-11.48,25.42-23.4,37.65-36.38l69.74-74.05,30.93-35.56,22.72-4.21c2.14-.4,5.92.77,7.28,1.96,1.51,1.33,3.52,5.96,2.38,7.65-5.25,7.81-10.29,14.82-14.84,23.01l-36.95,66.51c-9.29,16.72-22.73,59.54-14.55,73.09,3.68,6.09,23.13-4.96,33-16.37l60.41-69.81,29.14-31.41,20.58-23.58,22.81-30.08c7.75-3.26,17.08-3.51,25.52-2.44,1.68,4.32,1.51,9.22-1.07,12.68l-24.52,33.02c-18.34,24.7-35.66,68.12-47.36,98.34-5.51,14.23-8.39,28.5-9.88,43.77l9.68,5.97c-.48,3.11-2.51,6.8-4.99,8.84-17.67-2.54-30.78-13.49-28.07-31.17,1.02-6.63,4.32-12.31,6.31-18.66l5.52-17.59,14.39-33.16c-15.74,16.75-29.19,33.7-43.66,50.86-16.03,19.01-47.08,46.76-70.53,35.85-17.02-7.92-25.67-24.4-23.77-43.04,1.5-14.76,6.83-28.39,13.67-41.67,3.54-6.59,7.4-12.26,8.88-20.67Z"></path>
      <path d="M770.25,158.31c.58,7.05-10.19,9.27-15.19,7.18-8.89-3.71-15.14-10.08-17.76-19.24l19.04-5.7c5.27,4,13.28,10.09,13.91,17.76Z"></path>
      <path d="M1129.73,126.14c-6.05-3.1-8.55-10.18-8.68-16.5,2-1.82,4.96-3.21,7.47-3.88l11.21,15.54c-1.32,3.16-5.94,6.93-10,4.85Z"></path>
    </g>
  </g>
</svg>